<svg width="26" height="26" viewBox="0 0 26 26" fill="none" xmlns="http://www.w3.org/2000/svg">
<path d="M25.7348 12.6064L0.69353 0.0499177C0.591749 -0.000978849 0.474999 -0.0129544 0.364237 0.0139908C0.109784 0.0768631 -0.0488759 0.33434 0.0139892 0.591817L2.59445 11.1364C2.63336 11.2951 2.75011 11.4238 2.90578 11.4747L7.32729 12.9926L2.90877 14.5105C2.75311 14.5644 2.63636 14.6902 2.60044 14.8488L0.0139892 25.4084C-0.012953 25.5192 -0.000978572 25.6359 0.0499122 25.7347C0.166661 25.9713 0.454044 26.0671 0.69353 25.9503L25.7348 13.4657C25.8276 13.4207 25.9024 13.3429 25.9503 13.2531C26.067 13.0136 25.9713 12.7262 25.7348 12.6064ZM2.96565 22.4085L4.47142 16.253L13.3084 13.2202C13.3773 13.1962 13.4342 13.1423 13.4581 13.0705C13.5 12.9447 13.4342 12.81 13.3084 12.7651L4.47142 9.73524L2.97164 3.6037L21.7713 13.0315L2.96565 22.4085Z" fill="#4A7800"/>
</svg>
