<svg width="30" height="33" viewBox="0 0 30 33" fill="none" xmlns="http://www.w3.org/2000/svg">
<path d="M24.4995 20.5005C19.5 25.0005 14.8328 23.6671 12.4995 22.0005L20 20.5005L27.5 17.5C28.3333 15.6667 29.6 11.2 28 8C26.4 4.8 21.6667 2.33365 19.5 1.50047C17.5 1.00047 12.8 0.300473 10 1.50047C8.52141 2.13416 6.79174 3.53935 5.26757 4.99449C2.96223 7.19543 1.13961 9.91711 0.476684 13.0347C-0.272123 16.5562 -0.343257 21.0959 1.99946 25.0005C6.49946 32.5005 12.8069 32.0005 15.4995 32.0005C18.5 32.0005 28.4995 27.5005 29.4995 26.0005C30.2995 24.8005 27.4995 21.1671 25.9995 19.5005L24.4995 20.5005Z" fill="#C4C4C4"/>
</svg>
