<svg width="12" height="6" viewBox="0 0 12 6" fill="none" xmlns="http://www.w3.org/2000/svg">
<path d="M5.54268 5.9515C5.35771 5.95188 5.17845 5.88271 5.03601 5.75598L0.285993 1.50567C0.12432 1.36139 0.0226507 1.15405 0.00334995 0.929267C-0.0159508 0.704488 0.0486986 0.480683 0.183076 0.307086C0.317453 0.13349 0.51055 0.0243213 0.719888 0.00359705C0.929227 -0.0171272 1.13766 0.05229 1.29933 0.196578L5.54268 4.00485L9.78604 0.332589C9.86702 0.261978 9.96019 0.209247 10.0602 0.177428C10.1602 0.145608 10.2651 0.135328 10.3689 0.147177C10.4726 0.159026 10.5731 0.192771 10.6647 0.246472C10.7562 0.300174 10.837 0.372774 10.9023 0.460098C10.9748 0.547502 11.0297 0.650042 11.0636 0.761293C11.0975 0.872543 11.1096 0.990107 11.0992 1.10662C11.0888 1.22313 11.0561 1.33608 11.0031 1.43839C10.9502 1.5407 10.8781 1.63017 10.7915 1.70119L6.04144 5.80698C5.89491 5.91368 5.71931 5.96456 5.54268 5.9515Z" fill="#0C4807"/>
</svg>
