<svg width="21" height="21" viewBox="0 0 21 21" fill="none" xmlns="http://www.w3.org/2000/svg">
<path fill-rule="evenodd" clip-rule="evenodd" d="M20.9323 19.7766C20.9323 20.4146 20.4152 20.9323 19.7771 20.9323H14.443V12.8261H17.1639L17.5716 9.66735H14.443V7.65006C14.443 6.7355 14.6973 6.1123 16.0087 6.1123L17.6817 6.11173V3.28593C17.392 3.24773 16.3993 3.16163 15.2441 3.16163C12.8322 3.16163 11.1809 4.63383 11.1809 7.33761V9.66735H8.4531V12.8261H11.1809V20.9323H1.15521C0.517164 20.9323 0 20.4146 0 19.7766V1.15575C0 0.51715 0.517164 0 1.15521 0H19.7771C20.4152 0 20.9323 0.51715 20.9323 1.15575V19.7766Z" fill="#3D1D00"/>
</svg>
