<svg width="21" height="21" viewBox="0 0 21 21" fill="none" xmlns="http://www.w3.org/2000/svg">
<path fill-rule="evenodd" clip-rule="evenodd" d="M18.5118 0H2.55578C1.18153 0 0.067627 1.11105 0.067627 2.48244V18.4499C0.067627 19.8207 1.18153 20.9323 2.55578 20.9323H18.5118C19.8861 20.9323 21 19.8207 21 18.4499V2.48244C21 1.11105 19.8861 0 18.5118 0V0ZM15.113 3.27036C15.113 2.90952 15.4059 2.61663 15.7668 2.61663H17.7291C18.0905 2.61663 18.3834 2.90952 18.3834 3.27036V5.23325C18.3834 5.59408 18.0905 5.88697 17.7291 5.88697H15.7668C15.4059 5.88697 15.113 5.59408 15.113 5.23325V3.27036V3.27036ZM10.5586 6.47445C12.7818 6.47445 14.5843 8.27291 14.5843 10.4904C14.5843 12.7085 12.7818 14.5064 10.5586 14.5064C8.33592 14.5064 6.53346 12.7085 6.53346 10.4904C6.53346 8.27291 8.33592 6.47445 10.5586 6.47445V6.47445ZM19.038 18.3157C19.038 18.6766 18.7451 18.97 18.3837 18.97H2.68462C2.32321 18.97 2.03032 18.6766 2.03032 18.3157V8.50358H4.64693C4.30608 8.99402 4.19075 9.90924 4.19075 10.4905C4.19075 13.9932 7.04773 16.8433 10.5584 16.8433C14.0697 16.8433 16.9267 13.9932 16.9267 10.4905C16.9267 9.90924 16.8439 9.00829 16.4214 8.50358H19.038V18.3157V18.3157Z" fill="#3D1D00"/>
</svg>
