<svg width="23" height="22" viewBox="0 0 23 22" fill="none" xmlns="http://www.w3.org/2000/svg">
<path fill-rule="evenodd" clip-rule="evenodd" d="M2.4375 21.75C2.4375 21.75 0.625 21.75 0.625 19.9375C0.625 18.125 2.4375 12.6875 11.5 12.6875C20.5625 12.6875 22.375 18.125 22.375 19.9375C22.375 21.75 20.5625 21.75 20.5625 21.75H2.4375ZM11.5 10.875C12.9421 10.875 14.3252 10.3021 15.3449 9.28239C16.3646 8.26266 16.9375 6.87961 16.9375 5.4375C16.9375 3.99539 16.3646 2.61234 15.3449 1.59261C14.3252 0.572878 12.9421 0 11.5 0C10.0579 0 8.67484 0.572878 7.65511 1.59261C6.63538 2.61234 6.0625 3.99539 6.0625 5.4375C6.0625 6.87961 6.63538 8.26266 7.65511 9.28239C8.67484 10.3021 10.0579 10.875 11.5 10.875V10.875Z" fill="#3D1D00"/>
</svg>
