<svg width="24" height="21" viewBox="0 0 24 21" fill="none" xmlns="http://www.w3.org/2000/svg">
<path fill-rule="evenodd" clip-rule="evenodd" d="M20.0547 1.66729C19.1757 0.641162 17.9195 0 16.5287 0C13.8627 0 11.6992 2.36613 11.6992 5.28422C11.6992 5.6987 11.7407 6.10043 11.8237 6.48741C7.80841 6.26676 4.24901 4.16554 1.86476 0.964426C1.44852 1.74777 1.21085 2.65653 1.21085 3.62431C1.21085 5.45658 2.06345 7.07424 3.36057 8.0219C2.5696 7.99642 1.82326 7.75632 1.17061 7.3633V7.42769C1.17061 9.98898 2.83619 12.1257 5.04816 12.6093C4.64324 12.7334 4.21568 12.7957 3.77492 12.7957C3.46369 12.7957 3.16 12.7636 2.86574 12.7019C3.48067 14.8004 5.26382 16.3288 7.37834 16.3698C5.72533 17.7876 3.641 18.6326 1.3781 18.6326C0.988269 18.6326 0.602841 18.6085 0.225586 18.5602C2.36336 20.0571 4.90417 20.9323 7.63173 20.9323C16.5192 20.9323 21.3776 12.8816 21.3776 5.89789C21.3776 5.66785 21.3739 5.43848 21.3657 5.21313C22.3095 4.46801 23.1294 3.53779 23.7745 2.47813C22.9093 2.89797 21.9775 3.18234 21.0004 3.30976C21.9982 2.65653 22.764 1.62101 23.125 0.386978C22.1906 0.991923 21.1582 1.43188 20.0547 1.66729Z" fill="#3D1D00"/>
</svg>
