<svg width="20" height="22" viewBox="0 0 20 22" fill="none" xmlns="http://www.w3.org/2000/svg">
<path d="M10 22C10.6881 22.0009 11.3594 21.7895 11.9205 21.3952C12.4817 21.0009 12.9048 20.4433 13.1311 19.8H6.86889C7.09518 20.4433 7.51831 21.0009 8.07946 21.3952C8.6406 21.7895 9.31189 22.0009 10 22ZM17.7778 13.8446V8.8C17.7778 5.2613 15.35 2.2803 12.0611 1.3838C11.7356 0.572 10.94 0 10 0C9.06 0 8.26445 0.572 7.93889 1.3838C4.65 2.2814 2.22222 5.2613 2.22222 8.8V13.8446L0.325557 15.7223C0.222176 15.8243 0.14019 15.9455 0.0843171 16.079C0.0284446 16.2124 -0.000210499 16.3555 1.16408e-06 16.5V17.6C1.16408e-06 17.8917 0.117064 18.1715 0.325438 18.3778C0.533812 18.5841 0.816427 18.7 1.11111 18.7H18.8889C19.1836 18.7 19.4662 18.5841 19.6746 18.3778C19.8829 18.1715 20 17.8917 20 17.6V16.5C20.0002 16.3555 19.9716 16.2124 19.9157 16.079C19.8598 15.9455 19.7778 15.8243 19.6744 15.7223L17.7778 13.8446Z" fill="#3D1D00"/>
</svg>
