<svg width="24" height="22" viewBox="0 0 24 22" fill="none" xmlns="http://www.w3.org/2000/svg">
<path d="M21.3333 4.7452C22 4.7452 22.5648 4.96987 23.0278 5.41922C23.4907 5.86856 23.7222 6.41677 23.7222 7.06383V19.6815C23.7222 20.3285 23.4907 20.8767 23.0278 21.3261C22.5648 21.7754 22 22.0001 21.3333 22.0001H2.38889C1.72222 22.0001 1.15741 21.7754 0.694444 21.3261C0.231482 20.8767 0 20.3285 0 19.6815V7.06383C0 6.41677 0.231482 5.86856 0.694444 5.41922C1.15741 4.96987 1.72222 4.7452 2.38889 4.7452H7.11111V2.42657C7.11111 1.81546 7.34259 1.28523 7.80556 0.835885C8.26852 0.386538 8.83333 0.161865 9.5 0.161865H14.2222C14.8889 0.161865 15.4537 0.386538 15.9167 0.835885C16.3796 1.28523 16.6111 1.81546 16.6111 2.42657V4.7452H21.3333ZM14.2222 4.7452V2.42657H9.5V4.7452H14.2222Z" fill="#3D1D00"/>
</svg>
