<svg width="31" height="21" viewBox="0 0 31 21" fill="none" xmlns="http://www.w3.org/2000/svg">
<path d="M30.353 3.28041C30.1765 2.64519 29.8305 2.06591 29.3497 1.60053C28.8688 1.13516 28.2698 0.800024 27.6128 0.628663C25.1944 1.27562e-07 15.5 0 15.5 0C15.5 0 5.80558 -1.27562e-07 3.38716 0.625318C2.72987 0.796124 2.13064 1.13108 1.64966 1.59653C1.16868 2.06199 0.822881 2.64157 0.646986 3.27707C-1.31982e-07 5.61783 0 10.5 0 10.5C0 10.5 -1.31982e-07 15.3822 0.646986 17.7196C1.00335 19.0104 2.05513 20.0269 3.38716 20.3713C5.80558 21 15.5 21 15.5 21C15.5 21 25.1944 21 27.6128 20.3713C28.9483 20.0269 29.9966 19.0104 30.353 17.7196C31 15.3822 31 10.5 31 10.5C31 10.5 31 5.61783 30.353 3.28041ZM12.4208 14.9809V6.01911L20.4475 10.4666L12.4208 14.9809Z" fill="#3D1D00"/>
</svg>
